# xmcd CD database file
#
# Track frame offsets:
#	150
#	19080
#	52956
#	85884
#	116361
#	148328
#	179999
#
# Disc length: 2834 seconds
#
# Revision: 0
# Processed by: cddbd v1.5.1PL0 Copyright (c) Steve Scherf et al.
# Submitted via: CDex 1.50
#
DISCID=600b1007
DTITLE=Chris Anderson - Blues One
DYEAR=1991
DGENRE=Jazz
TTITLE0=The End Of A Beautiful Friendship
TTITLE1=Star Eyes
TTITLE2=Someday My Prince Will Come
TTITLE3=Blue Bossa
TTITLE4=I Can't Get Started
TTITLE5=Blues One
TTITLE6=Summer Of'42
EXTD=YEAR: 1991
EXTT0=
EXTT1=
EXTT2=
EXTT3=
EXTT4=
EXTT5=
EXTT6=
PLAYORDER=
